# xmcd
#
# Track frame offsets:
#	150
#	22565
#	44507
#	60505
#	81325
#	98857
#	114009
#	132431
#	153993
#	174936
#	194265
#	211940
#
# Disc length: 3133 seconds
#
# Revision: 1
# Processed by: cddbd v1.5.2PL0 Copyright (c) Steve Scherf et al.
# Submitted via: EasyCDDAExtractor 10.0.2.1
#
DISCID=8e0c3b0c
DTITLE=Tim McGraw - Emotional Traffic
DYEAR=2012
DGENRE=Country
TTITLE0=Hallo
TTITLE1=Right Back Atcha, Babe
TTITLE2=One Part, Two Part
TTITLE3=I Will Not Fall Down
TTITLE4=The One
TTITLE5=Better Than I Used To Be
TTITLE6=Touchdown Jesus
TTITLE7=The One That Got Away
TTITLE8=Felt Good On My Lips
TTITLE9=Hey Now
TTITLE10=Only Human (With Ne-Yo)
TTITLE11=Die By My Own Hand
EXTD=
EXTT0=
EXTT1=
EXTT2=
EXTT3=
EXTT4=
EXTT5=
EXTT6=
EXTT7=
EXTT8=
EXTT9=
EXTT10=
EXTT11=
PLAYORDER=
